<svg xmlns="http://www.w3.org/2000/svg" viewBox="0 0 787.15 131.47"><text transform="translate(52.52 19.93)" style="font-size:22px;fill:#0f003d;font-family:FuturaPT-Medium, Futura PT;font-weight:500">1 : Langue Vi<tspan x="115.15" y="0" style="letter-spacing:-0.009987571022727272em">v</tspan><tspan x="124.78" y="0">ante Ét</tspan><tspan x="184.49" y="0" style="letter-spacing:-0.02099609375em">r</tspan><tspan x="191.33" y="0">angè</tspan><tspan x="235.92" y="0" style="letter-spacing:-0.030983664772727272em">r</tspan><tspan x="242.55" y="0" xml:space="preserve">e 1 (Anglais)  -  2 : Cultu</tspan><tspan x="457.42" y="0" style="letter-spacing:-0.030983664772727272em">r</tspan><tspan x="464.04" y="0">e Géné</tspan><tspan x="528.1" y="0" style="letter-spacing:-0.02099609375em">r</tspan><tspan x="534.94" y="0">ale et Exp</tspan><tspan x="621.84" y="0" style="letter-spacing:-0.031028053977272728em">r</tspan><tspan x="628.46" y="0">ession</tspan><tspan x="124.03" y="26.4">3 : Cultu</tspan><tspan x="197.2" y="26.4" style="letter-spacing:-0.030983664772727272em">r</tspan><tspan x="203.83" y="26.4">e Économique, Juridique et Managériale</tspan><tspan x="-52.45" y="52.8">4 : Relation Comme</tspan><tspan x="118.93" y="52.8" style="letter-spacing:-0.030983664772727272em">r</tspan><tspan x="125.55" y="52.8">ciale Inte</tspan><tspan x="204.31" y="52.8" style="letter-spacing:-0.031005859375em">r</tspan><tspan x="210.93" y="52.8">cultu</tspan><tspan x="251.68" y="52.8" style="letter-spacing:-0.030983664772727272em">r</tspan><tspan x="258.3" y="52.8" xml:space="preserve">elle  -  5 : Mise en oe</tspan><tspan x="441.22" y="52.8" style="letter-spacing:-0.010031960227272728em">u</tspan><tspan x="451.65" y="52.8">v</tspan><tspan x="461.51" y="52.8" style="letter-spacing:-0.030983664772727272em">r</tspan><tspan x="468.13" y="52.8">e d</tspan><tspan x="495.52" y="52.8" style="letter-spacing:-0.030007102272727272em">’</tspan><tspan x="501.24" y="52.8">Opé</tspan><tspan x="540.88" y="52.8" style="letter-spacing:-0.02099609375em">r</tspan><tspan x="547.72" y="52.8">ations Internationales</tspan><tspan x="145.72" y="79.2">6 : D</tspan><tspan x="187.92" y="79.2" style="letter-spacing:-0.010986328125em">é</tspan><tspan x="198.28" y="79.2" style="letter-spacing:-0.011985085227272728em">v</tspan><tspan x="207.87" y="79.2">eloppement Comme</tspan><tspan x="382.9" y="79.2" style="letter-spacing:-0.030983664772727272em">r</tspan><tspan x="389.53" y="79.2">cial International</tspan><tspan x="97.03" y="105.6">7 : Langue Vi</tspan><tspan x="212.17" y="105.6" style="letter-spacing:-0.009987571022727272em">v</tspan><tspan x="221.81" y="105.6">ante Ét</tspan><tspan x="281.52" y="105.6" style="letter-spacing:-0.02099609375em">r</tspan><tspan x="288.36" y="105.6">angè</tspan><tspan x="332.95" y="105.6" style="letter-spacing:-0.030983664772727272em">r</tspan><tspan x="339.57" y="105.6">e 2 (Espagnol ou Allemand)</tspan></text></svg>