<svg id="Composant_2_1" data-name="Composant 2 – 1" xmlns="http://www.w3.org/2000/svg" width="536" height="672.274" viewBox="0 0 536 672.274">
  <path id="Fichier_1" data-name="Fichier 1" d="M366.152,0H72.134A72.134,72.134,0,0,0,0,72.134V166.86a72.163,72.163,0,0,0,44.366,66.588l.007,61.6,56.051-56.051H366.152a72.134,72.134,0,0,0,72.134-72.134V72.134A72.134,72.134,0,0,0,366.152,0Z" fill="#0f003d"/>
  <path id="Fichier_1-2" data-name="Fichier 1" d="M72.134,0H366.152a72.134,72.134,0,0,1,72.134,72.134V166.86a72.163,72.163,0,0,1-44.366,66.589l-.007,61.6-56.051-56.051H72.134A72.134,72.134,0,0,1,0,166.86V72.134A72.134,72.134,0,0,1,72.134,0Z" transform="translate(97.714 377.229)" fill="#0f003d"/>
  <text id="_Ce_BTS_m_a_apporté_une_façon_de_travailler_et_une_rigueur_bien_plus_importante_qu_auparavant_" data-name="&quot;Ce BTS m&apos;a apporté une façon de travailler et une rigueur bien plus importante qu&apos;auparavant&quot;" transform="translate(51 37.137)" fill="#fff" font-size="26" font-family="FuturaPT-Medium, Futura PT" font-weight="500"><tspan x="0" y="26">&quot;Ce BTS m&apos;a apporté une façon </tspan><tspan x="0" y="60">de travailler et une rigueur bien </tspan><tspan x="0" y="94">plus importante qu&apos;auparavant&quot;</tspan></text>
  <text id="_C_est_un_BTS_polyvalent_dans_le_sens_ou_il_aborde_plusieurs_aspects_tels_que_l_international_le_commercial_le_géopolitique_..._" data-name="&quot;C&apos;est un BTS polyvalent dans le sens ou il aborde plusieurs aspects tels que l&apos;international, le commercial, le géopolitique, ...&quot; " transform="translate(147 401.137)" fill="#fff" font-size="26" font-family="FuturaPT-Medium, Futura PT" font-weight="500"><tspan x="0" y="26">&quot;C&apos;est un BTS polyvalent dans le </tspan><tspan x="0" y="60">sens ou il aborde plusieurs </tspan><tspan x="0" y="94">aspects tels que l&apos;international, le </tspan><tspan x="0" y="128">commercial, le géopolitique, ...&quot; </tspan></text>
  <text id="Ancien_étudiant" data-name="Ancien étudiant" transform="translate(51 159.137)" fill="#fff" font-size="26" font-family="FuturaPT-Medium, Futura PT" font-weight="500"><tspan x="0" y="26">Ancien étudiant</tspan></text>
  <text id="Ancien_étudiant-2" data-name="Ancien étudiant" transform="translate(147 557.137)" fill="#fff" font-size="26" font-family="FuturaPT-Medium, Futura PT" font-weight="500"><tspan x="0" y="26">Ancien étudiant</tspan></text>
</svg>
