<svg xmlns="http://www.w3.org/2000/svg" viewBox="0 0 578.78 209.1"><path d="M290.41,571.6a17.4,17.4,0,0,1-11.18,16.29,106.92,106.92,0,0,1-38.32,6.66c-35.1,0-56.4-12-73.2-27.9-23.1-22.2-32.1-47.1-32.1-76.5,0-36.3,15-62.4,32.1-78.3,20.1-18.9,45-26.4,73.5-26.4a101.16,101.16,0,0,1,38.3,7.17,17.44,17.44,0,0,1,10.9,16.18v.88a17.42,17.42,0,0,1-24.06,16.15,63.82,63.82,0,0,0-24.24-5c-40.2,0-66.3,33-66.3,69.9,0,44.4,34.2,68.4,67.8,68.4a60.59,60.59,0,0,0,22.63-4.31A17.5,17.5,0,0,1,290.41,571Zm75-162.15v161.1a19.51,19.51,0,0,1-19.5,19.5h0a19.51,19.51,0,0,1-19.51-19.5V409.45A19.51,19.51,0,0,1,345.91,390h0A19.51,19.51,0,0,1,365.41,409.45ZM490,423.55v166.5H451V423.55H397.72a33.6,33.6,0,0,1,33.6-33.6h112a33.6,33.6,0,0,1-33.6,33.6Zm141.69,124.5H616.42A49.29,49.29,0,0,0,571,578.2h0a19.38,19.38,0,0,1-17.86,11.85h0a19.38,19.38,0,0,1-17.8-27l68.45-159.08A23.11,23.11,0,0,1,625,390h0a23.11,23.11,0,0,1,21.32,14.19l66.53,159.05A19.38,19.38,0,0,1,695,590.05h0a19.38,19.38,0,0,1-17.86-11.85h0A49.3,49.3,0,0,0,631.69,548.05Zm13.36-55.89A24.94,24.94,0,0,0,623.9,454h0a24.94,24.94,0,0,0-21.15,38.16L623.9,526Zm-21.15-24.3a12.29,12.29,0,1,0,12.29,12.28A12.28,12.28,0,0,0,623.9,467.86Z" transform="translate(-135.61 -385.45)" style="fill:#0f003d"/></svg>